<?xml version="1.0" encoding="UTF-8" standalone="no"?>
<!DOCTYPE svg PUBLIC "-//W3C//DTD SVG 1.1//EN"
"http://www.w3.org/Graphics/SVG/1.1/DTD/svg11.dtd">
<svg viewBox="0 0 935 1210" version="1.1" xmlns="http://www.w3.org/2000/svg" xmlns:xlink="http://www.w3.org/1999/xlink">
<defs>
<style type="text/css"><![CDATA[
.g0_4{
fill: #D1D2D4;
}
.g1_4{
fill: none;
stroke: #C7C8CA;
stroke-width: 1.1458334;
stroke-linecap: butt;
stroke-linejoin: miter;
}
.g2_4{
fill: none;
stroke: #231F20;
stroke-width: 0.7638889;
stroke-linecap: butt;
stroke-linejoin: miter;
}
]]></style>
</defs>
<path d="M55.6,55.6H879.4V86.4H55.6V55.6Zm0,628.1H879.4v19.4H55.6V683.7Zm0,56.8H879.4V760H55.6V740.5Z" class="g0_4" />
<path d="M55,55.6H168.4M55.6,85.8V56.1m112.8,-.5h2.5m0,0h92.2m0,0h6.3m0,0H282m0,0h51.3m0,0h61.9m0,0h8.4m0,0h63.9m0,0h3m0,0h9.9m0,0H590.5m0,0h85.8m0,0h5.5m0,0H702m0,0h71.8m0,0H880m-.6,30.2V56.1M55,86.4H168.4M55.6,127V86.9m112.8,-.5h2.5m0,0h92.2m0,0h6.3m0,0H282m0,0h51.3m0,0h61.9m0,0h8.4m0,0h63.9m0,0h3m0,0h9.9m0,0H590.5m0,0h85.8m0,0h5.5m0,0H702m0,0h71.8m0,0H880m-.6,40.6V86.9M55,127.6H168.4M55.6,182V128.2m112.8,-.6h2.5m0,0h92.2m0,0h6.3m0,0H282m0,0h51.3m0,0h61.9m0,0h8.4m0,0h63.9m0,0h3m0,0h9.9m0,0H590.5m0,0h85.8m0,0h5.5m0,0H702m0,0h71.8m0,0H880m-.6,54.4V128.2M55,182.6H168.4M55.6,238.1V183.2m112.8,-.6h2.5m0,0h92.2m0,0h6.3m0,0H282m0,0h51.3m0,0h61.9m0,0h8.4m0,0h63.9m0,0h3m0,0h9.9m0,0H590.5m0,0h85.8m0,0h5.5m0,0H702m0,0h71.8m0,0H880m-.6,55.5V183.2M55,238.7H168.4M55.6,274.4V239.3m112.8,-.6h2.5m0,0h92.2m0,0h6.3m0,0H282m0,0h51.3m0,0h61.9m0,0h8.4m0,0h63.9m0,0h3m0,0h9.9m0,0H590.5m0,0h85.8m0,0h5.5m0,0H702m0,0h71.8m0,0H880m-.6,35.7V239.3M55,275H168.4M55.6,344.8V275.6M168.4,275h2.5m0,0h92.2m0,0h6.3m0,0H282m0,0h51.3m0,0h61.9m0,0h8.4m0,0h63.9m0,0h3m0,0h9.9m0,0H590.5m0,0h85.8m0,0h5.5m0,0H702m0,0h71.8m0,0H880m-.6,69.8V275.6M55,345.4H168.4M55.6,383.9V346m112.8,-.6h2.5m0,0h92.2m0,0h6.3m0,0H282m0,0h51.3m0,0h61.9m0,0h8.4m0,0h63.9m0,0h3m0,0h9.9m0,0H590.5m0,0h85.8m0,0h5.5m0,0H702m0,0h71.8m0,0H880m-.6,38.5V346M55,384.5H168.4M55.6,421.3V385m112.8,-.5h2.5m0,0h92.2m0,0h6.3m0,0H282m0,0h51.3m0,0h61.9m0,0h8.4m0,0h63.9m0,0h3m0,0h9.9m0,0H590.5m0,0h85.8m0,0h5.5m0,0H702m0,0h71.8m0,0H880m-.6,36.8V385M55,421.8H168.4M55.6,460.9V422.4m112.8,-.6h2.5m0,0h92.2m0,0h6.3m0,0H282m0,0h51.3m0,0h61.9m0,0h8.4m0,0h63.9m0,0h3m0,0h9.9m0,0H590.5m0,0h85.8m0,0h5.5m0,0H702m0,0h71.8m0,0H880m-.6,39.1V422.4M55,461.5H168.4M55.6,499.9V462m112.8,-.5h2.5m0,0h92.2m0,0h6.3m0,0H282m0,0h51.3m0,0h61.9m0,0h8.4m0,0h63.9m0,0h3m0,0h9.9m0,0H590.5m0,0h85.8m0,0h5.5m0,0H702m0,0h71.8m0,0H880m-.6,38.4V462M55,500.5H168.4m-112.8,22V501.1m112.8,-.6h2.5m0,0h92.2m0,0h6.3m0,0H282m0,0h51.3m0,0h61.9m0,0h8.4m0,0h63.9m0,0h3m0,0h9.9m0,0H590.5m0,0h85.8m0,0h5.5m0,0H702m0,0h71.8m0,0H880m-.6,22V501.1M55,523H168.4M55.6,546.7V523.6M168.4,523h2.5m0,0h92.2m0,0h6.3m0,0H282m0,0h51.3m0,0h61.9m0,0h8.4m0,0h63.9m0,0h3m0,0h9.9m0,0H590.5m0,0h85.8m0,0h5.5m0,0H702m0,0h71.8m0,0H880m-.6,23.7V523.6M55,547.3H168.4M55.6,588.5V547.8m112.8,-.5h2.5m0,0h92.2m0,0h6.3m0,0H282m0,0h51.3m0,0h61.9m0,0h8.4m0,0h63.9m0,0h3m0,0h9.9m0,0H590.5m0,0h85.8m0,0h5.5m0,0H702m0,0h71.8m0,0H880m-.6,41.2V547.8M55,589.1H168.4M55.6,624.2V589.6m112.8,-.5h2.5m0,0h92.2m0,0h6.3m0,0H282m0,0h51.3m0,0h61.9m0,0h8.4m0,0h63.9m0,0h3m0,0h9.9m0,0H590.5m0,0h85.8m0,0h5.5m0,0H702m0,0h71.8m0,0H880m-.6,35.1V589.6M55,624.8H168.4M55.6,645.7V625.4m112.8,-.6h2.5m0,0h92.2m0,0h6.3m0,0H282m0,0h51.3m0,0h61.9m0,0h8.4m0,0h63.9m0,0h3m0,0h9.9m0,0H590.5m0,0h85.8m0,0h5.5m0,0H702m0,0h71.8m0,0H880m-.6,20.9V625.4M55,646.3H168.4M55.6,683.1V646.8m112.8,-.5h2.5m0,0h92.2m0,0h6.3m0,0H282m0,0h51.3m0,0h61.9m0,0h8.4m0,0h63.9m0,0h3m0,0h9.9m0,0H590.5m0,0h85.8m0,0h5.5m0,0H702m0,0h71.8m0,0H880m-.6,36.8V646.8M55,683.7H168.4M55.6,702.6V684.2m112.8,-.5h2.5m0,0h92.2m0,0h6.3m0,0H282m0,0h51.3m0,0h61.9m0,0h8.4m0,0h63.9m0,0h3m0,0h9.9m0,0H590.5m0,0h85.8m0,0h5.5m0,0H702m0,0h71.8m0,0H880m-.6,18.9V684.2M55,703.1H168.4M55.6,740V703.7m112.8,-.6h2.5m0,0h92.2m0,0h6.3m0,0H282m0,0h51.3m0,0h61.9m0,0h8.4m0,0h63.9m0,0h3m0,0h9.9m0,0H590.5m0,0h85.8m0,0h5.5m0,0H702m0,0h71.8m0,0H880m-.6,36.9V703.7M55,740.5H168.4m-112.8,19V741.1m112.8,-.6h2.5m0,0h92.2m0,0h6.3m0,0H282m0,0h51.3m0,0h61.9m0,0h8.4m0,0h63.9m0,0h3m0,0h9.9m0,0H590.5m0,0h85.8m0,0h5.5m0,0H702m0,0h71.8m0,0H880m-.6,19V741.1M55,760H168.4M55.6,921.7V760.6M168.4,760h2.5m0,0h92.2m0,0h6.3m0,0H282m0,0h51.3m0,0h61.9m0,0h8.4m0,0h63.9m0,0h3m0,0h9.9m0,0H590.5m0,0h85.8m0,0h5.5m0,0H702m0,0h71.8m0,0H880m-.6,161.7V760.6M55,922.3H168.4m0,0h2.5m0,0h92.2m0,0h6.3m0,0H282m0,0h51.3m0,0h61.9m0,0h8.4m0,0h63.9m0,0h3m0,0h9.9m0,0H590.5m0,0h85.8m0,0h5.5m0,0H702m0,0h71.8m0,0H880" class="g1_4" />
<path d="M184.6,839H404.2m7.1,0H556.9M69.3,884.8H451.5m22.4,0H874.7" class="g2_4" />
</svg>