<?xml version="1.0" encoding="UTF-8" standalone="no"?>
<!DOCTYPE svg PUBLIC "-//W3C//DTD SVG 1.1//EN"
"http://www.w3.org/Graphics/SVG/1.1/DTD/svg11.dtd">
<svg viewBox="0 0 935 1210" version="1.1" xmlns="http://www.w3.org/2000/svg" xmlns:xlink="http://www.w3.org/1999/xlink">
<defs>
<style type="text/css"><![CDATA[
.g0_3{
fill: #D1D2D4;
}
.g1_3{
fill: none;
stroke: #C7C8CA;
stroke-width: 1.1458334;
stroke-linecap: butt;
stroke-linejoin: miter;
}
]]></style>
</defs>
<path d="M55.6,55.6H879.4V91.3H55.6V55.6Zm0,744.1H879.4V836H55.6V799.7Z" class="g0_3" />
<path d="M55,55.6H168.4M55.6,90.7V56.1m112.8,-.5h2.5m0,0h92.2m0,0h6.3m0,0H282m0,0h51.3m0,0h61.9m0,0h8.4m0,0h63.9m0,0h3m0,0h9.9m0,0H590.5m0,0h85.8m0,0h5.5m0,0H702m0,0h71.8m0,0H880m-.6,35.1V56.1M55.6,835.4V800.3m823.8,35.1V800.3M55,836H168.4M55.6,888.2V836.6M168.4,836h2.5m0,0h92.2m-92.2,52.2V836.6m92.2,-.6h6.3m0,0H282m0,0h51.3M282,888.2V836.6m51.3,-.6h61.9m0,0h8.4m-8.4,52.2V836.6m8.4,-.6h63.9m0,0h3m0,0h9.9m0,0H590.5m0,0h85.8m0,0h5.5m0,0H702m0,0h71.8m0,0H880m-.6,52.2V836.6M55,888.8H168.4M55.6,919V889.4m112.8,-.6h2.5m0,0h92.2M170.9,919V889.4m92.2,-.6h6.3m0,0H282m0,0h51.3M282,919V889.4m51.3,-.6h61.9m0,0h8.4M395.2,919V889.4m8.4,-.6h63.9m0,0h3m0,0h9.9m0,0H590.5m0,0h85.8m0,0h5.5m0,0H702m0,0h71.8m0,0H880m-.6,30.2V889.4M55,919.6H168.4M55.6,949.8V920.2m112.8,-.6h2.5m0,0h92.2m-92.2,30.2V920.2m92.2,-.6h6.3m0,0H282m0,0h51.3M282,949.8V920.2m51.3,-.6h61.9m0,0h8.4m-8.4,30.2V920.2m8.4,-.6h63.9m0,0h3m0,0h9.9m0,0H590.5m0,0h85.8m0,0h5.5m0,0H702m0,0h71.8m0,0H880m-.6,30.2V920.2M55,950.4H168.4M55.6,980.6V951m112.8,-.6h2.5m0,0h92.2m-92.2,30.2V951m92.2,-.6h6.3m0,0H282m0,0h51.3M282,980.6V951m51.3,-.6h61.9m0,0h8.4m-8.4,30.2V951m8.4,-.6h63.9m0,0h3m0,0h9.9m0,0H590.5m0,0h85.8m0,0h5.5m0,0H702m0,0h71.8m0,0H880m-.6,30.2V951M55,981.2H168.4M55.6,1011.4V981.8m112.8,-.6h2.5m0,0h92.2m-92.2,30.2V981.8m92.2,-.6h6.3m0,0H282m0,0h51.3M282,1011.4V981.8m51.3,-.6h61.9m0,0h8.4m-8.4,30.2V981.8m8.4,-.6h63.9m0,0h3m0,0h9.9m0,0H590.5m0,0h85.8m0,0h5.5m0,0H702m0,0h71.8m0,0H880m-.6,30.2V981.8M55,1012H168.4M55.6,1042.2v-29.6m112.8,-.6h2.5m0,0h92.2m-92.2,30.2v-29.6m92.2,-.6h6.3m0,0H282m0,0h51.3M282,1042.2v-29.6m51.3,-.6h61.9m0,0h8.4m-8.4,30.2v-29.6m8.4,-.6h63.9m0,0h3m0,0h9.9m0,0H590.5m0,0h85.8m0,0h5.5m0,0H702m0,0h71.8m0,0H880m-.6,30.2v-29.6M55,1042.8H168.4m0,0h2.5m0,0h92.2m0,0h6.3m0,0H282m0,0h51.3m0,0h61.9m0,0h8.4m0,0h63.9m0,0h3m0,0h9.9m0,0H590.5m0,0h85.8m0,0h5.5m0,0H702m0,0h71.8m0,0H880M55,91.3H168.4M55.6,143V91.9m112.8,-.6h2.5m0,0h92.2m0,0h6.3m0,0H282m0,0h51.3m0,0h61.9m0,0h8.4m0,0h63.9m0,0h3m0,0h9.9m0,0H590.5M55.6,161.1V143m0,59.9V162.3m0,65.9V204.1m0,49.4V229.4m0,48.3v-23m0,48.3V278.9m0,49.4V304.2m0,49.4V329.5m0,49.4V354.8m0,49.4V380.1m0,49.4V405.4m0,49.4V430.7m0,65.9V456m0,65.9V497.8m0,49.4V523.1m0,49.4V548.4m0,50.5V573.7m0,67V600.1m0,82.4V641.9m0,101.1V683.7m0,115.4V744.2M590.5,91.3h85.8m-85.8,51.1V91.9m85.8,-.6h5.5m0,0H702m-20.2,51.1V91.9M702,91.3h71.8m0,0H880M773.8,142.4V91.9m105.6,50.5V91.9M590.5,161.1V143.6m91.3,17.5V143.6m92,17.5V143.6m105.6,17.5V143.6M590.5,202.9V162.3m91.3,40.6V162.3m92,40.6V162.3m105.6,40.6V162.3M590.5,228.2V204.1m91.3,24.1V204.1m92,24.1V204.1m105.6,24.1V204.1M590.5,253.5V229.4m91.3,24.1V229.4m92,24.1V229.4m105.6,24.1V229.4M590.5,277.7v-23m91.3,23v-23m92,23v-23m105.6,23v-23M590.5,303V278.9M681.8,303V278.9m92,24.1V278.9M879.4,303V278.9M590.5,328.3V304.2m91.3,24.1V304.2m92,24.1V304.2m105.6,24.1V304.2M590.5,353.6V329.5m91.3,24.1V329.5m92,24.1V329.5m105.6,24.1V329.5M590.5,378.9V354.8m91.3,24.1V354.8m92,24.1V354.8m105.6,24.1V354.8M590.5,404.2V380.1m91.3,24.1V380.1m92,24.1V380.1m105.6,24.1V380.1M590.5,429.5V405.4m91.3,24.1V405.4m92,24.1V405.4m105.6,24.1V405.4M590.5,454.8V430.7m91.3,24.1V430.7m92,24.1V430.7m105.6,24.1V430.7M590.5,496.6V456m91.3,40.6V456m92,40.6V456m105.6,40.6V456M590.5,521.9V497.8m91.3,24.1V497.8m92,24.1V497.8m105.6,24.1V497.8M590.5,547.2V523.1m91.3,24.1V523.1m92,24.1V523.1m105.6,24.1V523.1M590.5,572.5V548.4m91.3,24.1V548.4m92,24.1V548.4m105.6,24.1V548.4m0,50.5V573.7m-288.9,67V600.1m91.3,40.6V600.1m92,40.6V600.1m105.6,40.6V600.1M590.5,682.5V641.9m91.3,40.6V641.9m92,40.6V641.9m105.6,40.6V641.9M590.5,743V683.7M681.8,743V683.7m92,59.3V683.7M879.4,743V683.7M590.5,799.1V744.2m91.3,54.9V744.2m92,54.9V744.2m105.6,54.9V744.2M589.9,143h86.4m0,0h5.5m0,0H702m0,0h71.8m0,0H880M55,161.7H168.4m0,0h2.5m0,0h92.2m0,0h6.3m0,0H282m0,0h51.3m0,0h61.9m0,0h8.4m0,0h63.9m0,0h3m0,0h9.9m0,0H590.5m0,0h85.8m0,0h5.5m0,0H702m0,0h71.8m0,0H880M55,203.5H168.4m0,0h2.5m0,0h92.2m0,0h6.3m0,0H282m0,0h51.3m0,0h61.9m0,0h8.4m0,0h63.9m0,0h3m0,0h9.9m0,0H590.5m0,0h85.8m0,0h5.5m0,0H702m0,0h71.8m0,0H880M55,228.8H168.4m0,0h2.5m0,0h92.2m0,0h6.3m0,0H282m0,0h51.3m0,0h61.9m0,0h8.4m0,0h63.9m0,0h3m0,0h9.9m0,0H590.5m0,0h85.8m0,0h5.5m0,0H702m0,0h71.8m0,0H880M55,254.1H168.4m0,0h2.5m0,0h92.2m0,0h6.3m0,0H282m0,0h51.3m0,0h61.9m0,0h8.4m0,0h63.9m0,0h3m0,0h9.9m0,0H590.5m0,0h85.8m0,0h5.5m0,0H702m0,0h71.8m0,0H880M55,278.3H168.4m0,0h2.5m0,0h92.2m0,0h6.3m0,0H282m0,0h51.3m0,0h61.9m0,0h8.4m0,0h63.9m0,0h3m0,0h9.9m0,0H590.5m0,0h85.8m0,0h5.5m0,0H702m0,0h71.8m0,0H880M55,303.6H168.4m0,0h2.5m0,0h92.2m0,0h6.3m0,0H282m0,0h51.3m0,0h61.9m0,0h8.4m0,0h63.9m0,0h3m0,0h9.9m0,0H590.5m0,0h85.8m0,0h5.5m0,0H702m0,0h71.8m0,0H880M55,328.9H168.4m0,0h2.5m0,0h92.2m0,0h6.3m0,0H282m0,0h51.3m0,0h61.9m0,0h8.4m0,0h63.9m0,0h3m0,0h9.9m0,0H590.5m0,0h85.8m0,0h5.5m0,0H702m0,0h71.8m0,0H880M55,354.2H168.4m0,0h2.5m0,0h92.2m0,0h6.3m0,0H282m0,0h51.3m0,0h61.9m0,0h8.4m0,0h63.9m0,0h3m0,0h9.9m0,0H590.5m0,0h85.8m0,0h5.5m0,0H702m0,0h71.8m0,0H880M55,379.5H168.4m0,0h2.5m0,0h92.2m0,0h6.3m0,0H282m0,0h51.3m0,0h61.9m0,0h8.4m0,0h63.9m0,0h3m0,0h9.9m0,0H590.5m0,0h85.8m0,0h5.5m0,0H702m0,0h71.8m0,0H880M55,404.8H168.4m0,0h2.5m0,0h92.2m0,0h6.3m0,0H282m0,0h51.3m0,0h61.9m0,0h8.4m0,0h63.9m0,0h3m0,0h9.9m0,0H590.5m0,0h85.8m0,0h5.5m0,0H702m0,0h71.8m0,0H880M55,430.1H168.4m0,0h2.5m0,0h92.2m0,0h6.3m0,0H282m0,0h51.3m0,0h61.9m0,0h8.4m0,0h63.9m0,0h3m0,0h9.9m0,0H590.5m0,0h85.8m0,0h5.5m0,0H702m0,0h71.8m0,0H880M55,455.4H168.4m0,0h2.5m0,0h92.2m0,0h6.3m0,0H282m0,0h51.3m0,0h61.9m0,0h8.4m0,0h63.9m0,0h3m0,0h9.9m0,0H590.5m0,0h85.8m0,0h5.5m0,0H702m0,0h71.8m0,0H880M55,497.2H168.4m0,0h2.5m0,0h92.2m0,0h6.3m0,0H282m0,0h51.3m0,0h61.9m0,0h8.4m0,0h63.9m0,0h3m0,0h9.9m0,0H590.5m0,0h85.8m0,0h5.5m0,0H702m0,0h71.8m0,0H880M55,522.5H168.4m0,0h2.5m0,0h92.2m0,0h6.3m0,0H282m0,0h51.3m0,0h61.9m0,0h8.4m0,0h63.9m0,0h3m0,0h9.9m0,0H590.5m0,0h85.8m0,0h5.5m0,0H702m0,0h71.8m0,0H880M55,547.8H168.4m0,0h2.5m0,0h92.2m0,0h6.3m0,0H282m0,0h51.3m0,0h61.9m0,0h8.4m0,0h63.9m0,0h3m0,0h9.9m0,0H590.5m0,0h85.8m0,0h5.5m0,0H702m0,0h71.8m0,0H880M55,573.1H168.4m0,0h2.5m0,0h92.2m0,0h6.3m0,0H282m0,0h51.3m0,0h61.9m0,0h8.4m0,0h63.9m0,0h3m0,0h9.9m0,0H590.5m0,0h85.8m0,0h5.5m0,0H702m0,0h71.8m0,0H880M55,599.5H168.4m0,0h2.5m0,0h92.2m0,0h6.3m0,0H282m0,0h51.3m0,0h61.9m0,0h8.4m0,0h63.9m0,0h3m0,0h9.9m0,0H590.5m0,0h85.8m0,0h5.5m0,0H702m0,0h71.8m0,0H880M55,641.3H168.4m0,0h2.5m0,0h92.2m0,0h6.3m0,0H282m0,0h51.3m0,0h61.9m0,0h8.4m0,0h63.9m0,0h3m0,0h9.9m0,0H590.5m0,0h85.8m0,0h5.5m0,0H702m0,0h71.8m0,0H880M55,683.1H168.4m0,0h2.5m0,0h92.2m0,0h6.3m0,0H282m0,0h51.3m0,0h61.9m0,0h8.4m0,0h63.9m0,0h3m0,0h9.9m0,0H590.5m0,0h85.8m0,0h5.5m0,0H702m0,0h71.8m0,0H880M55,743.6H168.4m0,0h2.5m0,0h92.2m0,0h6.3m0,0H282m0,0h51.3m0,0h61.9m0,0h8.4m0,0h63.9m0,0h3m0,0h9.9m0,0H590.5m0,0h85.8m0,0h5.5m0,0H702m0,0h71.8m0,0H880M55,799.7H168.4m0,0h2.5m0,0h92.2m0,0h6.3m0,0H282m0,0h51.3m0,0h61.9m0,0h8.4m0,0h63.9m0,0h3m0,0h9.9m0,0H590.5m0,0h85.8m0,0h5.5m0,0H702m0,0h71.8m0,0H880" class="g1_3" />
</svg>