<?xml version="1.0" encoding="UTF-8" standalone="no"?>
<!DOCTYPE svg PUBLIC "-//W3C//DTD SVG 1.1//EN"
"http://www.w3.org/Graphics/SVG/1.1/DTD/svg11.dtd">
<svg viewBox="0 0 935 1210" version="1.1" xmlns="http://www.w3.org/2000/svg" xmlns:xlink="http://www.w3.org/1999/xlink">
<defs>
<clipPath id="c0_1"><path d="M55,141.2V55H275v86.2Z" /></clipPath>
<style type="text/css"><![CDATA[
.g0_1{
fill: #040504;
}
.g1_1{
fill: #231F20;
}
.g2_1{
fill: #FFFFFF;
}
.g3_1{
fill: #D1D2D4;
}
.g4_1{
fill: none;
stroke: #C7C8CA;
stroke-width: 1.1458334;
stroke-linecap: butt;
stroke-linejoin: miter;
}
.g5_1{
fill: none;
stroke: #231F20;
stroke-width: 0.7638889;
stroke-linecap: butt;
stroke-linejoin: miter;
}
]]></style>
</defs>
<g clip-path="url(#c0_1)">
<path d="M96.6,120.5c-1.5,1.9,-3.6,4.5,-3.1,6.4c.3,1.6,2.5,2.5,2.5,2.5l4.8,2.6l-3.1,2.7l3.7,1.2c0,0,-3.4,3.5,-3.8,3.9c-1,.1,-2,.2,-3.1,.2c-7.9,0,-18.9,-4.6,-21.6,-4.7c-3.3,0,-7.4,1.9,-7.4,1.9l2.1,-2.4c0,0,-2.8,.6,-5.5,.4L66,132.6c-3.4,-.1,-6.4,-1.1,-7.8,-2.1c0,0,6.2,-.5,14.7,-.4c3.4,0,9.2,.4,9.2,.4c-2.9,-1.3,-5.6,-2.9,-6.7,-5.7l5.4,.8c-2.2,-1.4,-5.6,-4.9,-6.2,-7.6l6.1,2.1c-1.1,-1.1,-4.8,-4.6,-5.5,-8.7l4.8,3c-1.3,-1.3,-4.7,-8,-4.1,-10l4.5,3C78.2,104.8,75.7,97.7,77.4,95c1.4,5.3,4.4,7.2,4.4,7.2C79.8,99.4,75.5,89.1,79.6,84.6c1.1,10.2,5.5,13.7,5.5,13.7C81.5,92.5,77.4,75,85,71.4c-1.5,11.3,2.1,17.5,2.1,17.5C84.8,78.5,84.9,63.7,92.6,62.4C88.8,73.5,91.5,82.1,91.5,82.1C91,56.1,99.3,56.5,99.3,56.5c0,0,-1.3,7.4,-1.3,20.5v38c0,2.6,-.3,4.2,-1.4,5.5m5,9.2c3.4,.3,5.8,.5,8.2,.8c.9,.1,1.2,1.2,1.4,1.7c-1.2,-.3,-3,-.4,-3,-.4l-.1,1.1c0,0,1.5,-.4,3.2,-.5c0,0,3.5,0,3.4,2.4c-1,-.7,-2.9,-.4,-3.5,-.3c-1.7,.3,-3.4,1.1,-5.3,2.1c-1.8,.9,-3.7,1.9,-5.9,2.6c.9,-.9,3.5,-3.8,3.5,-3.8l-3.4,-1.2l2.8,-2.4l-4.3,-2.3c1.1,.1,2.1,.2,3,.2m.4,-3.8h15.5V74.6H103.3v32l-4.1,-4.1V77.1C99.1,62.1,100.9,55,100.9,55c-4.8,0,-7.3,4.6,-7.9,5.9c-2.7,.3,-4.9,1.9,-6.4,4.9c-.8,1.7,-1.2,3.4,-1.4,4.2C79.5,71.3,79,81.4,79.4,83.2L70.5,74.6H55.1v51.3H69.3v-31c0,0,6.8,6.5,6.8,6.5c.7,1.9,1.3,2.6,1.3,2.6l-2.7,-2.3c-.5,5.1,.9,7.6,2.2,9.5l-3.3,-2.7c-.2,4.9,2.2,8,3.7,9.3l-4.4,-2.1c-.3,3,2.7,7.4,4.5,8.2l-3.7,-.5c.8,4.1,3.7,5.6,3.7,5.6c0,0,-6.3,-.2,-9.1,-.2c-8,0,-13.3,.8,-13.3,.8c0,0,3.5,3.5,8.1,3.7L59,135.8c3,.9,5.7,.6,5.7,.6l-2.3,2.8c0,0,7.3,-2.8,10.4,-2.6c2.5,.1,14,4.6,21.7,4.6c5.2,0,8.9,-2,11.9,-3.6c1.9,-.9,3.4,-1.7,5,-2c2.8,-.4,4.1,.6,4.1,.6c.3,-1.1,1.1,-4.1,-3.4,-4.8c-.2,-.8,-1,-1.9,-2.2,-2.1C107.5,129,97.3,128.2,97,128.2c-.9,-.1,-3.9,-.7,-1.2,-4.6c.2,-.3,1.6,-2,1.6,-2Z" class="g0_1" />
</g>
<path d="M180.3,92.4c1.2,0,2.2,.9,2.2,2.1c0,1.1,-1,2,-2.2,2c-1.2,0,-2.2,-.9,-2.2,-2c0,-1.2,1,-2.1,2.2,-2.1Z" class="g1_1" />
<path d="M236.2,92.4c1.2,0,2.2,.9,2.2,2.1c0,1.1,-1,2,-2.2,2c-1.2,0,-2.2,-.9,-2.2,-2c0,-1.2,1,-2.1,2.2,-2.1Z" class="g1_1" />
<path d="M165.3,103.2v7.7h-3.4v-1.3c-.9,1,-2,1.6,-3.7,1.7c-2.7,0,-4.8,-1.6,-4.8,-4c0,-3.8,4,-4.6,7.9,-4.6h.5c0,-1,-.5,-2,-2.5,-2c-1.4,0,-2.6,.5,-3.5,1.2l-2,-2c1.4,-1.4,3.4,-2.1,5.6,-2.1c2.1,0,3.3,.3,4.5,1.4c1.2,1,1.4,2.9,1.4,4m-3.5,2.2h-.3c-.6,0,-2,0,-3,.3c-.8,.2,-1.4,.7,-1.4,1.3c0,1,1,1.4,1.8,1.4c1.8,0,2.9,-1.2,2.9,-2.6Z" class="g1_1" />
<path d="M172.7,98.1v-4h-3.6v4h-2.5v3.1h2.5v5.4c0,1.8,.3,2.9,1,3.7c.7,.6,1.8,1,3.3,1c1,0,2,-.2,2.7,-.6v-2.9c-.4,.2,-1.1,.3,-1.9,.3c-1.2,0,-1.5,-.6,-1.5,-1.7v-5.2h3.4V98.1Z" class="g1_1" />
<path d="M269.3,104.8v.9h-9.4c0,1.3,1.5,2.5,3.3,2.5c1.6,.1,2.5,-.5,3.3,-1.5l2.3,1.7c-1.4,1.8,-3.1,2.9,-5.6,2.9c-3.9,0,-7.1,-2.5,-7.1,-6.8c0,-3.4,2.2,-6.7,6.7,-6.7c4.6,0,6.5,3.6,6.5,7m-3.9,-1.7c-.2,-1.4,-.9,-2.4,-2.8,-2.4c-1.5,0,-2.6,1.1,-2.7,2.4Z" class="g1_1" />
<path d="M147.2,92.3V105L139.3,92.3h-4.9V111h4V97.9l8.1,13.1h4.7V92.3Z" class="g1_1" />
<path d="M229.2,98.1l-2,8l-2.1,-8h-3.8l-2,8l-2.1,-8h-4.1l4.2,12.8h3.6l2.2,-8l2.5,8H229l4.1,-12.8Z" class="g1_1" />
<path d="M182.2,98.1h-3.7V111h3.7V98.1Z" class="g1_1" />
<path d="M238.1,98.1h-3.7V111h3.7V98.1Z" class="g1_1" />
<path d="M210.9,99c-.8,-.8,-1.8,-1.2,-3.2,-1.2c-1.4,0,-3.1,.7,-3.8,1.7V98.1h-3.6V111H204v-7c0,-.9,.3,-1.6,.7,-2.1c.4,-.4,.9,-.7,1.6,-.7c.8,-.1,1.3,.3,1.6,.7c.4,.5,.5,1.4,.5,2.6V111h3.7v-8.1c0,-1.5,-.2,-2.8,-1.2,-3.9Z" class="g1_1" />
<path d="M254,92.3V111h-3.5v-1.5c-.8,1,-2.1,1.8,-4,1.8c-1.7,0,-3.3,-.6,-4.4,-1.8c-1.2,-1.2,-1.9,-3,-1.9,-5c0,-3.9,2.6,-6.7,6.2,-6.7c1.6,0,2.9,.5,3.9,1.4V92.3Zm-3.6,12.2c0,-1.7,-1.1,-3.4,-3.3,-3.4c-2.1,0,-3.2,1.7,-3.2,3.4c0,1.7,1.1,3.5,3.2,3.5c2.2,0,3.3,-1.8,3.3,-3.5Z" class="g1_1" />
<path d="M198.2,104.5c0,3.9,-2.9,6.8,-6.9,6.8c-4.1,0,-7,-2.9,-7,-6.8c0,-3.9,2.9,-6.7,7,-6.7c4,0,6.9,2.8,6.9,6.7m-6.9,-3.4c-2.2,0,-3.3,1.7,-3.3,3.4c0,1.8,1.1,3.5,3.3,3.5c2.1,0,3.2,-1.7,3.2,-3.5c0,-1.7,-1.1,-3.4,-3.2,-3.4Z" class="g1_1" />
<path d="M270.9,96.9h.6V95.5h.5l.8,1.4h.7l-.9,-1.4c.5,-.1,.8,-.4,.8,-1c0,-.6,-.4,-1,-1.2,-1h-1.3Zm.6,-2.9h.5c.4,0,.8,.1,.8,.5c0,.5,-.4,.5,-.8,.5h-.5Zm-2.4,1.2c0,1.6,1.3,3,3,3c1.6,0,2.9,-1.4,2.9,-3c0,-1.6,-1.3,-2.9,-2.9,-2.9c-1.7,0,-3,1.3,-3,2.9m.5,0c0,-1.3,1.1,-2.4,2.5,-2.4c1.3,0,2.4,1.1,2.4,2.4c0,1.4,-1.1,2.4,-2.4,2.4c-1.4,0,-2.5,-1,-2.5,-2.4Z" class="g1_1" />
<path d="M96.6,120.5c-1.5,1.9,-3.6,4.5,-3.1,6.4c.3,1.6,2.5,2.5,2.5,2.5l4.8,2.6l-3.1,2.7l3.7,1.2c0,0,-3.4,3.5,-3.8,3.9c-1,.1,-2,.2,-3.1,.2c-7.9,0,-18.9,-4.6,-21.6,-4.7c-3.3,0,-7.4,1.9,-7.4,1.9l2.1,-2.4c0,0,-2.8,.6,-5.5,.4L66,132.6c-3.4,-.1,-6.4,-1.1,-7.8,-2.1c0,0,6.2,-.5,14.7,-.4c3.4,0,9.2,.4,9.2,.4c-2.9,-1.3,-5.6,-2.9,-6.7,-5.7l5.4,.8c-2.2,-1.4,-5.6,-4.9,-6.2,-7.6l6.1,2.1c-1.1,-1.1,-4.8,-4.6,-5.5,-8.7l4.8,3c-1.3,-1.3,-4.7,-8,-4.1,-10l4.5,3C78.2,104.8,75.7,97.7,77.4,95c1.4,5.3,4.4,7.2,4.4,7.2C79.8,99.4,75.5,89.1,79.6,84.6c1.1,10.2,5.5,13.7,5.5,13.7C81.5,92.5,77.4,75,85,71.4c-1.5,11.3,2.1,17.5,2.1,17.5C84.8,78.5,84.9,63.7,92.6,62.4C88.8,73.5,91.5,82.1,91.5,82.1C91,56.1,99.3,56.5,99.3,56.5c0,0,-1.3,7.4,-1.3,20.5v38c0,2.6,-.3,4.2,-1.4,5.5m5,9.2c3.4,.3,5.8,.5,8.2,.8c.9,.1,1.2,1.2,1.4,1.7c-1.2,-.3,-3,-.4,-3,-.4l-.1,1.1c0,0,1.5,-.4,3.2,-.5c0,0,3.5,0,3.4,2.4c-1,-.7,-2.9,-.4,-3.5,-.3c-1.7,.3,-3.4,1.1,-5.3,2.1c-1.8,.9,-3.7,1.9,-5.9,2.6c.9,-.9,3.5,-3.8,3.5,-3.8l-3.4,-1.2l2.8,-2.4l-4.3,-2.3c1.1,.1,2.1,.2,3,.2Z" class="g2_1" />
<path d="M55.6,190.7H879.4v18.9H55.6V190.7Zm0,106.9H879.4V319H55.6V297.6Zm0,259H879.4v24.2H55.6V556.6Zm0,143H879.4v35.2H55.6V699.6Z" class="g3_1" />
<path d="M55.6,209.1V190.7m823.8,18.4V190.7M55,209.6H168.4M55.6,253.1V210.2m112.8,-.6h2.5m0,0h92.2m0,0h6.3m0,0H282m0,0h51.3m0,0h61.9m0,0h8.4m0,0h63.9m0,0h3m0,0h9.9m0,0H590.5m0,0h85.8m0,0h5.5m-5.5,43.5V210.2m5.5,-.6H702m0,0h71.8m0,0H880m-.6,43.5V210.2M55,253.6H168.4M55.6,297.1V254.2m112.8,-.6h2.5m0,0h92.2m0,0h6.3m0,0H282m0,0h51.3m0,0h61.9m0,0h8.4m0,0h63.9m0,0h3m0,0h9.9m0,0H590.5m0,0h85.8m0,0h5.5m-5.5,43.5V254.2m5.5,-.6H702m0,0h71.8m0,0H880m-.6,43.5V254.2M55,297.6H168.4M55.6,318.4V298.2m112.8,-.6h2.5m0,0h92.2m0,0h6.3m0,0H282m0,0h51.3m0,0h61.9m0,0h8.4m0,0h63.9m0,0h3m0,0h9.9m0,0H590.5m0,0h85.8m0,0h5.5m0,0H702m0,0h71.8m0,0H880m-.6,20.8V298.2M55,319H168.4M55.6,343.2V319.6M168.4,319h2.5m0,0h92.2m0,0h6.3m0,0H282m0,0h51.3m0,0h61.9m0,0h8.4m0,0h63.9m0,0h3m-3,24.2V319.6m3,-.6h9.9m0,0H590.5m0,0h85.8m0,0h5.5m0,0H702m0,0h71.8m0,0H880m-.6,24.2V319.6M55,343.8H168.4m-112.8,23V344.3m112.8,-.5h2.5m0,0h92.2m0,0h6.3m0,0H282m0,0h51.3m0,0h61.9m0,0h8.4m0,0h63.9m0,0h3m0,0h9.9m0,0H590.5m0,0h85.8m0,0h5.5m0,0H702m0,0h71.8m0,0H880m-.6,23V344.3M55,367.4H168.4M55.6,430.6V368m112.8,-.6h2.5m0,0h92.2m0,0h6.3m0,0H282m0,0h51.3m0,0h61.9m0,0h8.4m0,0h63.9m0,0h3m-3,63.2V368m3,-.6h9.9m0,0H590.5m0,0h85.8m0,0h5.5m0,0H702m0,0h71.8m0,0H880m-.6,63.2V368M55,431.2H168.4M55.6,453.7V431.8m112.8,-.6h2.5m0,0h92.2m0,0h6.3m0,0H282m0,0h51.3m0,0h61.9m0,0h8.4m0,0h63.9m0,0h3m0,0h9.9m0,0H590.5m0,0h85.8m0,0h5.5m0,0H702m0,0h71.8m0,0H880m-.6,22.5V431.8M55,454.3H168.4M55.6,556V454.9m112.8,-.6h2.5m0,0h92.2m0,0h6.3m0,0H282m0,0h51.3m0,0h61.9m0,0h8.4m0,0h63.9m0,0h3m-3,101.7V454.9m3,-.6h9.9m0,0H590.5m0,0h85.8m0,0h5.5m0,0H702m0,0h71.8m0,0H880M879.4,556V454.9M55,556.6H168.4M55.6,580.2v-23m112.8,-.6h2.5m0,0h92.2m0,0h6.3m0,0H282m0,0h51.3m0,0h61.9m0,0h8.4m0,0h63.9m0,0h3m0,0h9.9m0,0H590.5m0,0h85.8m0,0h5.5m0,0H702m0,0h71.8m0,0H880m-.6,23.6v-23M55,580.8H168.4M55.6,624.2V581.4m112.8,-.6h2.5m0,0h92.2m0,0h6.3m0,0H282m-12.6,43.4V581.4m12.6,-.6h51.3m0,0h61.9m-61.9,43.4V581.4m61.9,-.6h8.4m0,0h63.9m-63.9,43.4V581.4m63.9,-.6h3m0,0h9.9m0,0H590.5M480.4,624.2V581.4m110.1,-.6h85.8m0,0h5.5m0,0H702m0,0h71.8m0,0H880m-.6,43.4V581.4M55,624.8H168.4M55.6,661.6V625.4m112.8,-.6h2.5m0,0h92.2m0,0h6.3m0,0H282m-12.6,36.8V625.4m12.6,-.6h51.3m0,0h61.9m-61.9,36.8V625.4m61.9,-.6h8.4m0,0h63.9m-63.9,36.8V625.4m63.9,-.6h3m0,0h9.9m0,0H590.5M480.4,661.6V625.4m110.1,-.6h85.8m0,0h5.5m0,0H702m0,0h71.8m0,0H880m-.6,36.8V625.4M55,662.2H168.4M55.6,699V662.8m112.8,-.6h2.5m0,0h92.2m0,0h6.3m0,0H282M269.4,699V662.8m12.6,-.6h51.3m0,0h61.9M333.3,699V662.8m61.9,-.6h8.4m0,0h63.9M403.6,699V662.8m63.9,-.6h3m0,0h9.9m0,0H590.5M480.4,699V662.8m110.1,-.6h85.8m0,0h5.5m0,0H702m0,0h71.8m0,0H880m-.6,36.8V662.8M55,699.6H168.4M55.6,734.2v-34m112.8,-.6h2.5m0,0h92.2m0,0h6.3m0,0H282m0,0h51.3m0,0h61.9m0,0h8.4m0,0h63.9m0,0h3m0,0h9.9m0,0H590.5m0,0h85.8m0,0h5.5m0,0H702m0,0h71.8m0,0H880m-.6,34.6v-34M55,734.8H168.4M55.6,778.2V735.4m112.8,-.6h2.5m0,0h92.2m0,0h6.3m-6.3,43.4V735.4m6.3,-.6H282m0,0h51.3m0,0h61.9m0,0h8.4m0,0h63.9m0,0h3m0,0h9.9m-9.9,43.4V735.4m9.9,-.6H590.5m0,0h85.8m0,0h5.5m0,0H702m0,0h71.8M702,778.2V735.4m71.8,-.6H880m-.6,43.4V735.4M55,778.8H168.4M55.6,833.2V779.4m112.8,-.6h2.5m0,0h92.2m0,0h6.3m-6.3,54.4V779.4m6.3,-.6H282m0,0h51.3m0,0h61.9m0,0h8.4m0,0h63.9m0,0h3m0,0h9.9m-9.9,54.4V779.4m9.9,-.6H590.5m0,0h85.8m0,0h5.5m0,0H702m0,0h71.8M702,833.2V779.4m71.8,-.6H880m-.6,54.4V779.4M55,833.8H168.4M55.6,888.2V834.4m112.8,-.6h2.5m0,0h92.2m0,0h6.3m-6.3,54.4V834.4m6.3,-.6H282m0,0h51.3m0,0h61.9m0,0h8.4m0,0h63.9m0,0h3m0,0h9.9m-9.9,54.4V834.4m9.9,-.6H590.5m0,0h85.8m0,0h5.5m0,0H702m0,0h71.8M702,888.2V834.4m71.8,-.6H880m-.6,54.4V834.4M55,888.8H168.4M55.6,943.2V889.4m112.8,-.6h2.5m0,0h92.2m0,0h6.3m-6.3,54.4V889.4m6.3,-.6H282m0,0h51.3m0,0h61.9m0,0h8.4m0,0h63.9m0,0h3m0,0h9.9m-9.9,54.4V889.4m9.9,-.6H590.5m0,0h85.8m0,0h5.5m0,0H702m0,0h71.8M702,943.2V889.4m71.8,-.6H880m-.6,54.4V889.4M55,943.8H168.4M55.6,998.2V944.4m112.8,-.6h2.5m0,0h92.2m0,0h6.3m-6.3,54.4V944.4m6.3,-.6H282m0,0h51.3m0,0h61.9m0,0h8.4m0,0h63.9m0,0h3m0,0h9.9m-9.9,54.4V944.4m9.9,-.6H590.5m0,0h85.8m0,0h5.5m0,0H702m0,0h71.8M702,998.2V944.4m71.8,-.6H880m-.6,54.4V944.4M55.6,1053.2V999.4m207.5,53.8V999.4m207.4,53.8V999.4M702,1053.2V999.4m177.4,53.8V999.4M55.6,1108.2v-53.8m207.5,53.8v-53.8m207.4,53.8v-53.8M702,1108.2v-53.8m177.4,53.8v-53.8M55,998.8H168.4m0,0h2.5m0,0h92.2m0,0h6.3m0,0H282m0,0h51.3m0,0h61.9m0,0h8.4m0,0h63.9m0,0h3m0,0h9.9m0,0H590.5m0,0h85.8m0,0h5.5m0,0H702m-647,55H168.4m0,0h2.5m0,0h92.2m0,0h6.3m0,0H282m0,0h51.3m0,0h61.9m0,0h8.4m0,0h63.9m0,0h3m0,0h9.9m0,0H590.5m0,0h85.8m0,0h5.5m0,0H702m-647,55H168.4m0,0h2.5m0,0h92.2m0,0h6.3m0,0H282m0,0h51.3m0,0h61.9m0,0h8.4m0,0h63.9m0,0h3m0,0h9.9m0,0H590.5m0,0h85.8m0,0h5.5m0,0H702m0,-110h71.8m0,0H880m-178,55h71.8m0,0H880m-178,55h71.8m0,0H880" class="g4_1" />
<path d="M222.9,406.9H398.7m236.1,0H810.6M419.4,474.4h35.8m376.1,0h37.3" class="g5_1" />
</svg>