<?xml version="1.0" encoding="UTF-8" standalone="no"?>
<!DOCTYPE svg PUBLIC "-//W3C//DTD SVG 1.1//EN"
"http://www.w3.org/Graphics/SVG/1.1/DTD/svg11.dtd">
<svg viewBox="0 0 935 1210" version="1.1" xmlns="http://www.w3.org/2000/svg" xmlns:xlink="http://www.w3.org/1999/xlink">
<defs>
<style type="text/css"><![CDATA[
.g0_2{
fill: #D1D2D4;
}
.g1_2{
fill: none;
stroke: #C7C8CA;
stroke-width: 1.1458334;
stroke-linecap: butt;
stroke-linejoin: miter;
}
]]></style>
</defs>
<path d="M55.6,55.6H879.4V77H55.6V55.6Zm0,622.8H879.4v36.3H55.6V678.4Z" class="g0_2" />
<path d="M55.6,76.4V56.1M879.4,76.4V56.1M55.6,714.1V678.9m823.8,35.2V678.9M55,714.7H168.4M55.6,758.4V715.2m112.8,-.5h2.5m-2.5,43.7V715.2m2.5,-.5h92.2m0,0h6.3m0,0H282m0,0h51.3M282,758.4V715.2m51.3,-.5h61.9m0,0h8.4m-8.4,43.7V715.2m8.4,-.5h63.9m0,0h3m0,0h9.9m0,0H590.5m0,0h85.8m0,0h5.5m0,0H702m0,0h71.8m0,0H880m-.6,43.7V715.2M55,759H168.4M55.6,802.4V759.6M168.4,759h2.5m-2.5,43.4V759.6m2.5,-.6h92.2m0,0h6.3m0,0H282m0,0h51.3M282,802.4V759.6m51.3,-.6h61.9m0,0h8.4m-8.4,43.4V759.6m8.4,-.6h63.9m0,0h3m0,0h9.9m0,0H590.5m0,0h85.8m0,0h5.5m0,0H702m0,0h71.8m0,0H880m-.6,43.4V759.6M55,803H168.4M55.6,846.4V803.6M168.4,803h2.5m-2.5,43.4V803.6m2.5,-.6h92.2m0,0h6.3m0,0H282m0,0h51.3M282,846.4V803.6m51.3,-.6h61.9m0,0h8.4m-8.4,43.4V803.6m8.4,-.6h63.9m0,0h3m0,0h9.9m0,0H590.5m0,0h85.8m0,0h5.5m0,0H702m0,0h71.8m0,0H880m-.6,43.4V803.6M55,847H168.4M55.6,890.4V847.6M168.4,847h2.5m-2.5,43.4V847.6m2.5,-.6h92.2m0,0h6.3m0,0H282m0,0h51.3M282,890.4V847.6m51.3,-.6h61.9m0,0h8.4m-8.4,43.4V847.6m8.4,-.6h63.9m0,0h3m0,0h9.9m0,0H590.5m0,0h85.8m0,0h5.5m0,0H702m0,0h71.8m0,0H880m-.6,43.4V847.6M55,891H168.4M55.6,934.4V891.6M168.4,891h2.5m-2.5,43.4V891.6m2.5,-.6h92.2m0,0h6.3m0,0H282m0,0h51.3M282,934.4V891.6m51.3,-.6h61.9m0,0h8.4m-8.4,43.4V891.6m8.4,-.6h63.9m0,0h3m0,0h9.9m0,0H590.5m0,0h85.8m0,0h5.5m0,0H702m0,0h71.8m0,0H880m-.6,43.4V891.6M55,935H168.4M55.6,978.4V935.6M168.4,935h2.5m-2.5,43.4V935.6m2.5,-.6h92.2m0,0h6.3m0,0H282m0,0h51.3M282,978.4V935.6m51.3,-.6h61.9m0,0h8.4m-8.4,43.4V935.6m8.4,-.6h63.9m0,0h3m0,0h9.9m0,0H590.5m0,0h85.8m0,0h5.5m0,0H702m0,0h71.8m0,0H880m-.6,43.4V935.6M55,979H168.4M55.6,1022.4V979.6M168.4,979h2.5m-2.5,43.4V979.6m2.5,-.6h92.2m0,0h6.3m0,0H282m0,0h51.3M282,1022.4V979.6m51.3,-.6h61.9m0,0h8.4m-8.4,43.4V979.6m8.4,-.6h63.9m0,0h3m0,0h9.9m0,0H590.5m0,0h85.8m0,0h5.5m0,0H702m0,0h71.8m0,0H880m-.6,43.4V979.6M55,1023H168.4M55.6,1066.4v-42.8m112.8,-.6h2.5m-2.5,43.4v-42.8m2.5,-.6h92.2m0,0h6.3m0,0H282m0,0h51.3M282,1066.4v-42.8m51.3,-.6h61.9m0,0h8.4m-8.4,43.4v-42.8m8.4,-.6h63.9m0,0h3m0,0h9.9m0,0H590.5m0,0h85.8m0,0h5.5m0,0H702m0,0h71.8m0,0H880m-.6,43.4v-42.8M55,1067H168.4m0,0h2.5m0,0h92.2m0,0h6.3m0,0H282m0,0h51.3m0,0h61.9m0,0h8.4m0,0h63.9m0,0h3m0,0h9.9m0,0H590.5m0,0h85.8m0,0h5.5m0,0H702m0,0h71.8m0,0H880M55,55.6H168.4m0,0h2.5m0,0h92.2m0,0h6.3m0,0H282m0,0h51.3m0,0h61.9m0,0h8.4m0,0h63.9m0,0h3m0,0h9.9m0,0H590.5m0,0h85.8m0,0h5.5m0,0H702m0,0h71.8m0,0H880M55,77H168.4M55.6,138.6v-61M168.4,77h2.5m0,0h92.2m0,0h6.3m0,0H282m0,0h51.3m0,0h61.9m0,0h8.4m0,0h63.9m0,0h3m0,0h9.9m0,0H590.5M55.6,157.8V138.6m0,70.3V159m0,89.5V210m0,126.5V249.6m0,159.5V337.6m0,111.1V410.2m0,91.3V449.8m0,112.5V502.6m0,102.3V563.4m0,114.4V606M590.5,77h85.8m-85.8,61V77.6M676.3,77h5.5m0,0H702m-20.2,61V77.6M702,77h71.8m0,0H880M773.8,138V77.6M879.4,138V77.6M590.5,157.8V139.2m91.3,18.6V139.2m92,18.6V139.2m105.6,18.6V139.2M590.5,208.9V159m91.3,49.9V159m92,49.9V159m105.6,49.9V159M590.5,248.5V210m91.3,38.5V210m92,38.5V210m105.6,38.5V210M590.5,336.5V249.6m91.3,86.9V249.6m92,86.9V249.6m105.6,86.9V249.6M590.5,409.1V337.6m91.3,71.5V337.6m92,71.5V337.6m105.6,71.5V337.6M590.5,448.7V410.2m91.3,38.5V410.2m92,38.5V410.2m105.6,38.5V410.2M590.5,501.5V449.8m91.3,51.7V449.8m92,51.7V449.8m105.6,51.7V449.8M590.5,562.3V502.6m91.3,59.7V502.6m92,59.7V502.6m105.6,59.7V502.6M590.5,604.9V563.4m91.3,41.5V563.4m92,41.5V563.4m105.6,41.5V563.4M590.5,677.8V606m91.3,71.8V606m92,71.8V606m105.6,71.8V606M589.9,138.6h86.4m0,0h5.5m0,0H702m0,0h71.8m0,0H880M55,158.4H168.4m0,0h2.5m0,0h92.2m0,0h6.3m0,0H282m0,0h51.3m0,0h61.9m0,0h8.4m0,0h63.9m0,0h3m0,0h9.9m0,0H590.5m0,0h85.8m0,0h5.5m0,0H702m0,0h71.8m0,0H880M55,209.5H168.4m0,0h2.5m0,0h92.2m0,0h6.3m0,0H282m0,0h51.3m0,0h61.9m0,0h8.4m0,0h63.9m0,0h3m0,0h9.9m0,0H590.5m0,0h85.8m0,0h5.5m0,0H702m0,0h71.8m0,0H880M55,249.1H168.4m0,0h2.5m0,0h92.2m0,0h6.3m0,0H282m0,0h51.3m0,0h61.9m0,0h8.4m0,0h63.9m0,0h3m0,0h9.9m0,0H590.5m0,0h85.8m0,0h5.5m0,0H702m0,0h71.8m0,0H880m-825,88H168.4m0,0h2.5m0,0h92.2m0,0h6.3m0,0H282m0,0h51.3m0,0h61.9m0,0h8.4m0,0h63.9m0,0h3m0,0h9.9m0,0H590.5m0,0h85.8m0,0h5.5m0,0H702m0,0h71.8m0,0H880M55,409.7H168.4m0,0h2.5m0,0h92.2m0,0h6.3m0,0H282m0,0h51.3m0,0h61.9m0,0h8.4m0,0h63.9m0,0h3m0,0h9.9m0,0H590.5m0,0h85.8m0,0h5.5m0,0H702m0,0h71.8m0,0H880M55,449.3H168.4m0,0h2.5m0,0h92.2m0,0h6.3m0,0H282m0,0h51.3m0,0h61.9m0,0h8.4m0,0h63.9m0,0h3m0,0h9.9m0,0H590.5m0,0h85.8m0,0h5.5m0,0H702m0,0h71.8m0,0H880M55,502.1H168.4m0,0h2.5m0,0h92.2m0,0h6.3m0,0H282m0,0h51.3m0,0h61.9m0,0h8.4m0,0h63.9m0,0h3m0,0h9.9m0,0H590.5m0,0h85.8m0,0h5.5m0,0H702m0,0h71.8m0,0H880M55,562.9H168.4m0,0h2.5m0,0h92.2m0,0h6.3m0,0H282m0,0h51.3m0,0h61.9m0,0h8.4m0,0h63.9m0,0h3m0,0h9.9m0,0H590.5m0,0h85.8m0,0h5.5m0,0H702m0,0h71.8m0,0H880M55,605.5H168.4m0,0h2.5m0,0h92.2m0,0h6.3m0,0H282m0,0h51.3m0,0h61.9m0,0h8.4m0,0h63.9m0,0h3m0,0h9.9m0,0H590.5m0,0h85.8m0,0h5.5m0,0H702m0,0h71.8m0,0H880M55,678.4H168.4m0,0h2.5m0,0h92.2m0,0h6.3m0,0H282m0,0h51.3m0,0h61.9m0,0h8.4m0,0h63.9m0,0h3m0,0h9.9m0,0H590.5m0,0h85.8m0,0h5.5m0,0H702m0,0h71.8m0,0H880" class="g1_2" />
</svg>